<svg width="24" height="24" viewBox="0 0 24 24" fill="none" xmlns="http://www.w3.org/2000/svg">
<path d="M12 21C13.1819 21 14.3522 20.7672 15.4442 20.3149C16.5361 19.8626 17.5282 19.1997 18.364 18.364C19.1997 17.5282 19.8626 16.5361 20.3149 15.4442C20.7672 14.3522 21 13.1819 21 12C21 10.8181 20.7672 9.64778 20.3149 8.55585C19.8626 7.46392 19.1997 6.47177 18.364 5.63604C17.5282 4.80031 16.5361 4.13738 15.4442 3.68508C14.3522 3.23279 13.1819 3 12 3C9.61305 3 7.32387 3.94821 5.63604 5.63604C3.94821 7.32387 3 9.61305 3 12C3 14.3869 3.94821 16.6761 5.63604 18.364C7.32387 20.0518 9.61305 21 12 21Z" fill="#070707"/>
<path d="M8.30599 17.1222L8.84099 19.3602L15.253 19.4452C15.534 19.1992 15.703 17.6162 15.749 16.8982L15.932 19.4302C15.943 18.6132 16.452 17.0942 16.706 16.4372L17.03 14.8702V12.6602L15.65 14.9542L14.666 16.6462L12.106 17.6392L9.47399 16.7722L8.17999 14.7582L6.99799 12.6612L7.26499 14.8712L8.17999 18.8012L8.30599 17.1222Z" fill="#642D42"/>
<path d="M8.67001 19.4961L7.85001 19.7871L8.05501 20.1031C8.05501 20.1031 8.62501 20.3731 9.01301 20.4981L8.67001 19.4961ZM15.36 19.5351L16.19 19.7881L15.937 20.1041C15.624 20.2621 15.029 20.4971 15.029 20.4971L15.36 19.5351Z" fill="#76649D"/>
<path d="M10.94 18.3555L8.664 19.4775L9.009 20.5005C9.009 20.5005 10.215 20.9625 11.713 20.9945L12.008 19.5105L10.941 18.7845L10.94 18.3555ZM13.059 18.3555L15.371 19.5105L15.069 20.4765C15.069 20.4765 13.749 20.9665 12.315 20.9985L12.031 19.5105L13.059 18.7845V18.3555Z" fill="#CFBADC"/>
<path d="M9.34799 20.6166L8.94199 19.3336L9.47299 19.0586L10.16 20.8146C9.88505 20.7675 9.61372 20.7014 9.34799 20.6166ZM14.696 20.6056L15.091 19.3556L14.561 19.0816L13.886 20.8076C14.317 20.7206 14.696 20.6056 14.696 20.6056Z" fill="#BB74A1"/>
<path d="M10.94 18.8013V17.6953H13.059V18.8013L12.019 19.5213L10.94 18.8013Z" fill="#EFA284"/>
<path d="M8.33801 12.1346L10.101 10.5156H13.791L16.167 11.9416L16.063 14.1696C15.793 15.7146 15.39 16.4866 14.823 16.9326C14.368 17.2886 12.781 17.9326 12.043 18.2096C11.147 17.9596 9.83701 17.2536 9.29401 16.9326C8.51701 16.5526 8.18401 14.9326 8.11401 14.1696L8.33801 12.1346Z" fill="#FDECDE"/>
<path d="M11.067 15.83L11.156 16.204L11.62 15.707C11.4307 15.7216 11.2445 15.763 11.067 15.83Z" fill="#570405"/>
<path d="M11.614 15.707H12.431C12.515 15.758 12.703 15.871 12.781 15.914C12.861 15.958 12.869 16.198 12.864 16.312C12.628 16.83 12.041 16.862 11.762 16.786C11.483 16.71 11.23 16.498 11.208 16.203C11.19 15.968 11.471 15.774 11.614 15.707Z" fill="#F7A79B"/>
<path d="M12.97 15.7993C12.9 15.7393 12.81 15.7843 12.765 15.8093L12.958 16.1133C12.987 16.0433 13.038 15.8603 12.969 15.8003" fill="#570405"/>
<path d="M11.213 15.9338C11.081 16.1238 11.185 16.3178 11.254 16.3908C11.254 16.0298 11.509 15.7888 11.636 15.7138C11.5529 15.7132 11.4709 15.733 11.3972 15.7713C11.3235 15.8096 11.2602 15.8654 11.213 15.9338ZM12.842 16.3408C12.8895 16.2686 12.9291 16.1915 12.96 16.1108L12.797 15.7858L12.686 15.8658L12.514 15.6758L12.422 15.7028C12.501 15.7688 12.664 15.8998 12.686 15.8998C12.814 15.9878 12.843 16.2308 12.842 16.3408Z" fill="#D5696E"/>
<path d="M9.758 16.1243C10.36 16.1243 10.848 15.8242 10.848 15.4522C10.848 15.0822 10.36 14.7812 9.758 14.7812C9.156 14.7812 8.668 15.0812 8.668 15.4522C8.668 15.8232 9.156 16.1243 9.758 16.1243Z" fill="url(#paint0_linear_4821_9488)"/>
<path d="M14.373 16.0813C14.974 16.0813 15.463 15.7803 15.463 15.4093C15.463 15.0393 14.974 14.7383 14.373 14.7383C13.772 14.7383 13.283 15.0383 13.283 15.4093C13.283 15.7803 13.771 16.0813 14.373 16.0813Z" fill="url(#paint1_linear_4821_9488)"/>
<path d="M12.065 15.0464C12.193 15.0464 12.297 14.9564 12.297 14.8474C12.297 14.7384 12.193 14.6484 12.065 14.6484C11.938 14.6484 11.834 14.7384 11.834 14.8484C11.834 14.9574 11.938 15.0464 12.065 15.0464Z" fill="#EECBBE"/>
<path d="M10.218 14.6586C11.229 14.4876 11.248 13.5926 11.132 13.1656L10.827 12.7056L10.217 12.5156L9.45 12.7056L8.683 13.3786L8.604 14.0296C8.721 14.3096 9.207 14.8296 10.218 14.6586ZM13.97 14.6586C12.959 14.4876 12.94 13.5926 13.056 13.1656L13.361 12.7056L13.97 12.5156L14.738 12.7056L15.505 13.3786L15.584 14.0296C15.467 14.3096 14.981 14.8296 13.97 14.6586Z" fill="white"/>
<path d="M10.817 12.7282C10.6449 12.6721 10.4672 12.6349 10.287 12.6172C10.431 12.8592 10.933 13.1292 11.167 13.2342C11.117 13.0922 10.979 12.7922 10.817 12.7292M13.371 12.7282C13.534 12.6662 13.793 12.6282 13.901 12.6172C13.757 12.8592 13.255 13.1292 13.021 13.2342C13.071 13.0922 13.209 12.7922 13.371 12.7292" fill="#E0D1E9"/>
<path d="M9.42902 12.8783C9.03102 13.0933 8.70602 13.7613 8.59302 14.0683L8.15302 13.8433L8.31102 13.7873L8.59302 13.3943H8.39002L8.69501 13.2713L9.05602 12.8783L8.87602 12.7103H9.23602L9.42902 12.6203C10.376 12.2433 10.786 12.5233 10.873 12.7103C10.557 12.6093 9.92502 12.6093 9.42902 12.8783ZM14.76 12.8783C15.157 13.0933 15.482 13.7613 15.595 14.0683L16.035 13.8433L15.877 13.7873L15.595 13.3943H15.798L15.493 13.2713L15.132 12.8783L15.312 12.7103H14.952L14.759 12.6203C13.812 12.2433 13.402 12.5233 13.315 12.7103C13.631 12.6093 14.263 12.6093 14.759 12.8783" fill="#2A3137"/>
<path d="M9.56599 14.6386C9.18999 14.1866 9.21199 13.3786 9.26999 13.0316C9.50399 12.7756 10.01 12.6646 10.233 12.6406C10.712 12.9056 10.687 14.0046 10.616 14.5216C10.208 14.7246 9.74599 14.6836 9.56599 14.6386ZM14.622 14.6386C14.998 14.1866 14.976 13.3786 14.918 13.0316C14.684 12.7756 14.178 12.6646 13.955 12.6406C13.476 12.9056 13.5 14.0046 13.572 14.5216C13.98 14.7246 14.442 14.6836 14.622 14.6386Z" fill="#224B66"/>
<path d="M9.55701 14.2011C9.55513 14.2833 9.57074 14.3649 9.60281 14.4406C9.63488 14.5163 9.68266 14.5843 9.743 14.6401C10.073 14.6951 10.357 14.6171 10.459 14.5721C10.489 14.5321 10.545 14.4041 10.537 14.2021C10.527 13.9481 10.253 13.7521 10.037 13.7621C9.821 13.7721 9.56701 13.9281 9.55701 14.2021M14.632 14.2011C14.6338 14.2833 14.618 14.365 14.5857 14.4407C14.5535 14.5164 14.5055 14.5844 14.445 14.6401C14.2048 14.68 13.9584 14.6565 13.73 14.5721C13.7 14.5321 13.643 14.4041 13.651 14.2021C13.661 13.9481 13.936 13.7521 14.151 13.7621C14.366 13.7721 14.622 13.9281 14.631 14.2021" fill="#4AA9FB"/>
<path d="M10.106 14.481C10.258 14.461 10.371 14.373 10.36 14.283C10.349 14.193 10.216 14.137 10.064 14.156C9.91199 14.176 9.79799 14.264 9.80899 14.354C9.81999 14.444 9.95399 14.5 10.106 14.481ZM14.082 14.481C13.93 14.461 13.816 14.373 13.828 14.283C13.84 14.193 13.972 14.137 14.124 14.156C14.276 14.176 14.39 14.264 14.378 14.354C14.367 14.444 14.234 14.5 14.082 14.481Z" fill="#66E9FF"/>
<path d="M10.047 14.1188C10.155 14.1188 10.242 13.9918 10.242 13.8348C10.242 13.6778 10.155 13.5508 10.047 13.5508C9.93899 13.5508 9.85199 13.6778 9.85199 13.8348C9.85199 13.9918 9.93899 14.1188 10.047 14.1188ZM14.141 14.1188C14.033 14.1188 13.946 13.9918 13.946 13.8348C13.946 13.6778 14.033 13.5508 14.141 13.5508C14.249 13.5508 14.336 13.6778 14.336 13.8348C14.336 13.9918 14.249 14.1188 14.141 14.1188Z" fill="#1B3B5E"/>
<path d="M9.97501 13.2012C9.45701 13.3422 9.35101 13.9712 9.36301 14.2682C9.23501 14.0782 9.23601 13.7302 9.24301 13.5892L9.52301 13.2892L9.36301 12.9892L9.42501 12.9102L9.62001 13.2012L9.76201 13.1132C10.017 13.0432 10.342 13.0012 10.472 12.9902C10.592 13.0812 10.632 13.4792 10.649 13.6642C10.4837 13.4375 10.2459 13.2741 9.97501 13.2012ZM14.213 13.2012C14.731 13.3422 14.837 13.9712 14.825 14.2682C14.953 14.0782 14.953 13.7312 14.947 13.5902L14.666 13.2902L14.826 12.9902L14.763 12.9102L14.568 13.2012L14.426 13.1132C14.1929 13.0537 13.9555 13.0125 13.716 12.9902C13.596 13.0812 13.55 13.4802 13.533 13.6652C13.724 13.3832 14.06 13.2372 14.213 13.2012Z" fill="#0E2433"/>
<path d="M10.41 13.0348C10.396 12.7948 10.162 12.7818 10.046 12.8048C9.798 12.8548 9.848 13.0198 9.904 13.0958C10.079 13.1758 10.424 13.2738 10.41 13.0348ZM13.779 13.0348C13.793 12.7948 14.027 12.7818 14.142 12.8048C14.391 12.8548 14.341 13.0198 14.284 13.0958C14.11 13.1758 13.764 13.2738 13.779 13.0348ZM10.463 13.2648C10.41 13.2378 10.289 13.2008 10.233 13.2648C10.161 13.3438 10.348 13.4758 10.463 13.2648ZM13.725 13.2648C13.778 13.2378 13.899 13.2008 13.955 13.2648C14.026 13.3438 13.84 13.4758 13.725 13.2648Z" fill="white"/>
<path d="M9.64001 10.7965C9.40601 11.3125 8.384 12.2585 8.066 12.6865L8.005 13.4555L8.157 13.8375C8.207 12.8875 9.539 11.2375 10.124 10.5805C10.308 11.5415 10.71 12.1285 10.888 12.3005C10.46 11.5115 10.303 10.2005 10.278 9.64453C10.167 9.82553 9.87401 10.2805 9.64001 10.7965Z" fill="#DF8274"/>
<path fill-rule="evenodd" clip-rule="evenodd" d="M10.525 11.3397C9.74501 11.2957 9.23502 11.5297 9.08502 11.6447L9.02802 11.5717C9.19902 11.4417 9.73101 11.2027 10.53 11.2477L10.525 11.3397ZM14.271 11.4047C13.9836 11.3513 13.6912 11.3295 13.399 11.3397L13.394 11.2477C13.596 11.2377 13.932 11.2497 14.288 11.3137C14.643 11.3777 15.022 11.4947 15.305 11.7007L15.251 11.7757C14.983 11.5817 14.621 11.4677 14.271 11.4047Z" fill="black"/>
<path d="M16.118 12.6736L16.056 13.4936C15.954 12.6946 14.516 11.4836 14.03 10.7996C13.847 11.7616 13.61 12.1576 13.432 12.3306C13.859 11.5406 13.841 10.1156 13.866 9.55859C13.976 9.74059 14.282 10.4066 14.516 10.9226C14.75 11.4386 15.702 12.3146 16.118 12.6726" fill="#DF8274"/>
<path d="M8.59001 19.5244C8.38201 19.1224 8.36201 17.7914 8.37801 17.1774C8.37801 17.7094 8.73001 18.8544 8.90601 19.3604C8.81601 19.4154 8.62601 19.5244 8.58901 19.5244M15.525 19.5744C15.731 19.1724 15.751 17.5594 15.735 16.9444C15.735 17.4774 15.39 18.9224 15.213 19.4284C15.303 19.4824 15.338 19.5604 15.525 19.5744ZM16.765 16.2724C16.348 16.8604 16.033 19.2124 15.929 20.1064C16.724 19.7354 17.476 19.1844 17.763 18.9234L17.443 15.1094C17.387 15.2234 17.182 15.6844 16.765 16.2724ZM7.50201 16.2134C7.91901 16.8014 8.05501 19.2064 8.05501 20.1024C7.51701 19.8464 6.56001 19.2494 6.24701 18.9324L6.63301 15.1954C6.68801 15.3094 7.08501 15.6254 7.50201 16.2134Z" fill="#BD5D73"/>
<path d="M17.09 19.1942C17.347 18.9402 17.366 16.5082 17.343 15.3242L16.872 16.1292L16.536 19.7922L16.692 19.6902L17.09 17.1342V19.1942ZM6.828 19.1272C6.572 18.8732 6.719 16.5082 6.741 15.3252L7.213 16.1292L7.503 19.8062L7.286 19.6712L6.828 16.4312V19.1272Z" fill="#F095AA"/>
<path d="M17.566 14.7318L16.896 16.7718L16.673 16.3278L15.825 16.7718C16.519 16.1518 16.932 14.0418 17.064 12.9808C16.91 14.0438 15.886 14.6778 15.379 14.8648C15.879 14.5268 16.063 13.3348 16.093 12.7798L15.691 12.4028C15.227 12.3128 14.278 10.5468 13.861 9.67484C13.861 10.8098 13.539 11.9658 13.405 12.4028L13.092 13.0908L12.663 13.6348L12.416 13.0328L12.054 13.3338L11.162 11.7148L11.34 13.2008C10.573 12.6688 10.292 10.6278 10.247 9.67484H9.95699L9.66699 10.5398L8.39499 12.2248L8.68499 9.34184C7.98899 10.7788 7.93399 12.5138 7.99399 13.2018L7.03399 12.7798C7.01599 13.7728 7.81499 15.8548 8.21699 16.7718C7.88899 16.6318 7.12699 16.1378 6.69899 15.2858C6.16399 14.2208 6.00799 11.3158 6.69899 9.34184C7.39099 7.36784 9.57799 5.37184 12.054 5.45984C14.531 5.54984 15.914 6.63584 17.209 9.03084C18.244 10.9468 17.879 13.6308 17.566 14.7318Z" fill="#F8ADC0"/>
<path d="M6.59699 12.0273C6.52799 11.0743 6.99999 10.3503 7.24499 10.1073C7.14699 10.5443 7.06499 11.5693 7.03699 12.0273L6.82899 11.4923L6.59699 12.0273ZM7.63599 11.2623C7.41099 10.6503 7.65599 9.71931 7.80699 9.33031V10.0103L8.68699 9.33031L8.36899 9.86431C7.87999 10.2923 7.67699 10.9743 7.63599 11.2623ZM8.83399 10.0103C8.81399 9.58331 9.16799 9.00631 9.34699 8.77031L9.26199 9.25731L9.94599 8.77131L9.44599 9.67131V9.46331L8.83399 10.0103ZM10.436 9.67031C10.299 8.94031 10.575 8.46731 10.729 8.32031C10.632 8.47631 10.77 9.22031 10.852 9.57331L10.619 9.25731L10.436 9.67031ZM11.268 9.57331C11.189 9.27131 11.3 8.66931 11.366 8.40631L11.439 8.90431L11.867 8.32131C12.679 8.90431 12.719 9.75531 12.637 10.1073C12.698 9.64531 12.136 9.32931 11.867 9.18431C11.652 9.06731 11.378 9.39431 11.268 9.57331ZM13.297 10.0093L12.979 8.40531L13.566 9.57231L13.688 9.18231V10.1073L13.358 9.66931L13.297 10.0093ZM14.495 10.1933C14.272 9.81365 14.044 9.43695 13.811 9.06331L14.764 9.79231V9.33031L15.18 10.5943C14.952 10.3753 14.495 9.92331 14.495 9.86431V10.1933ZM16 11.2623C15.921 10.7173 15.64 9.90831 15.51 9.57231C16.224 10.1073 16.411 11.0353 16.415 11.4323L16.06 10.5933L16 11.2623ZM16.824 10.4193C17.049 10.7713 17.43 11.5703 17.161 11.9573L16.824 10.4193Z" fill="#FDEBE3"/>
<path d="M13.405 5.78356C12.112 5.42556 11.083 5.63456 10.729 5.78356C11.397 5.78356 11.696 5.99356 11.763 6.09956C10.947 5.80456 10.637 6.05556 10.583 6.21856C11.569 6.21856 11.983 6.38556 12.067 6.46856C12.322 6.26856 12.951 6.21856 13.233 6.21856L12.333 5.92856L13.405 5.78356Z" fill="#EA8DA1"/>
<path d="M8.243 7.99047C8.998 6.79747 10.131 6.32047 10.603 6.23047L10.788 6.33147C9.292 6.55947 8.311 7.94547 8.008 8.61047C7.738 9.21347 7.242 10.7675 7.418 12.1605C7.593 13.5555 8.356 14.6065 8.715 14.9585C7.205 14.3955 6.974 12.5465 7.047 11.6925C7.131 10.9555 7.489 9.18247 8.243 7.99047Z" fill="#BE4D71"/>
<path d="M8.56999 14.7419C7.73999 13.2249 7.57699 11.0059 7.59999 10.0859C6.97999 11.2639 7.59999 13.4059 7.70099 13.7199C7.78299 13.9719 8.31499 14.5059 8.57099 14.7409" fill="#DE6F93"/>
<path d="M8.25201 10.4281C8.69501 8.75013 9.97701 7.57812 10.563 7.20312C9.78001 7.74013 9.08001 8.98813 8.60701 9.92813C8.22801 10.6811 8.37901 11.7451 8.32301 12.4021L8.07601 12.7101V13.2481L8.03901 13.5671C7.91301 13.2451 7.80901 12.1031 8.25201 10.4271" fill="#832D47"/>
<path d="M10.414 8.50787C10.749 7.32487 11.374 6.95787 11.644 6.92188C11.279 7.08388 11.022 7.48687 10.698 8.03787C10.438 8.47787 10.31 9.34988 10.278 9.72988L9.65699 10.7779C9.32199 11.5949 8.61599 12.2119 8.30499 12.4179V11.0189C8.39199 10.0089 8.99899 9.11988 9.29199 8.80188C8.64299 9.72688 8.53499 11.2659 8.56199 11.9189L8.75199 11.6779L10.414 8.50787ZM12.333 13.7609C10.733 13.0939 10.774 10.0439 10.995 8.60088C10.833 10.8479 11.685 12.4209 12.13 12.9279L12.53 11.9199V13.1029L12.658 13.5999C12.721 13.5149 12.893 13.2769 13.077 13.0089C13.307 12.6729 13.712 10.9789 13.725 9.55588C13.736 8.41588 12.901 7.39588 12.482 7.02988C13.25 7.39488 13.676 8.55188 13.792 9.08488C14.528 10.6979 15.307 11.6469 15.604 11.9199C15.636 11.8619 15.626 11.3859 15.334 9.94488C15.042 8.50488 13.78 7.49088 13.184 7.16488C13.428 7.27188 14.753 8.03688 15.429 9.47487C15.969 10.6249 15.897 12.0229 15.793 12.5789C15.106 12.2369 14.236 10.4419 13.881 9.57188C13.904 9.65788 13.911 10.0569 13.793 11.1409C13.663 12.3229 12.982 13.3809 12.658 13.7609L12.333 13.2239V13.7609Z" fill="#D96C85"/>
<path d="M15.62 7.89503C14.68 6.60803 13.589 6.23303 13.16 6.20703C13.827 6.42803 14.42 6.71703 15.398 7.89503C16.375 9.07203 16.698 11.192 16.572 12.453C16.47 13.463 15.81 14.441 15.492 14.803C15.975 14.703 16.413 14.193 16.572 13.952C17.349 12.39 16.794 9.50403 15.62 7.89503Z" fill="#DE6F93"/>
<path d="M17.004 13.7553C17.279 12.7923 16.978 11.0353 16.794 10.2773C17.068 11.7603 16.908 13.2133 16.794 13.7553H17.004Z" fill="#813A50"/>
<path d="M7.99599 16.4612C7.45999 16.0792 7.03899 14.6842 6.89599 14.0352C6.86099 14.2972 6.88199 15.0362 7.23899 15.8982C7.59699 16.7582 8.489 17.2252 8.89 17.3502C8.45 16.9132 7.66399 15.2202 7.32499 14.4282L7.99599 16.4612ZM15.2 17.2812C15.833 16.6252 16.496 15.2412 16.748 14.6322C16.748 15.2882 16.244 16.2572 15.958 16.6902L16.644 16.2222C16.108 17.1102 15.458 17.2972 15.2 17.2812Z" fill="#BE5573"/>
<path d="M4.268 10.5168C4.056 11.7538 3.765 12.3208 3.646 12.4488C3.956 12.4488 4.408 12.1558 4.47 10.7488C4.52 9.62284 5.52 8.84284 5.96 8.58984C5.52 8.71884 4.48 9.27984 4.268 10.5168ZM19.794 10.5178C20.005 11.7538 20.296 12.3208 20.416 12.4498C20.105 12.4498 19.654 12.1558 19.591 10.7498C19.541 9.62384 18.616 8.87984 18.175 8.62684C18.5924 8.7628 18.9643 9.0111 19.2499 9.3445C19.5355 9.67789 19.7237 10.0845 19.794 10.5178Z" fill="#FFEDF2"/>
<path d="M4.59101 10.0694C5.15101 8.6724 5.98901 8.5014 6.33601 8.5684C5.00601 9.7184 5.10501 12.0834 4.76301 13.2984C4.07801 12.2714 4.37301 10.7394 4.59101 10.0694ZM19.488 10.0794C18.928 8.6824 18 8.4954 17.652 8.5624C18.736 9.7414 19.309 12.1594 19.289 13.2524C19.995 12.1844 19.706 10.7504 19.488 10.0804" fill="#F7A8BB"/>
<path d="M5.07599 14.4135C4.01799 13.5315 4.37599 11.8465 4.34499 11.7695L4.84299 13.0065L5.07599 14.4135ZM18.984 14.4135C20.042 13.5315 19.684 11.8465 19.715 11.7695L19.218 13.0065L18.984 14.4135Z" fill="#D86983"/>
<path d="M4.96801 11.2897C5.11701 10.4847 5.88001 9.53172 6.24301 9.15572C5.82301 9.60372 5.41901 11.5977 5.60501 13.0517C5.75501 14.2137 5.24201 14.8967 4.96801 15.0917C5.15401 14.6717 4.92101 13.3827 4.76501 12.8057C4.78101 12.6257 4.81801 12.0927 4.96801 11.2887M19.093 11.2867C18.944 10.4837 18.16 9.51272 17.797 9.13672C18.217 9.58472 18.642 11.5967 18.456 13.0497C18.306 14.2117 18.819 14.8947 19.093 15.0897C18.907 14.6697 19.161 13.3207 19.317 12.7437C19.301 12.5637 19.243 12.0907 19.093 11.2867Z" fill="#F8AFC1"/>
<path d="M5.49699 12.3567C5.19799 11.8617 5.22699 10.9748 5.27899 10.5938C5.01799 10.7418 4.82799 11.9748 4.76599 12.5728L5.09199 12.1088L5.60599 13.2067L5.49699 12.3567ZM18.565 12.3567C18.864 11.8617 18.835 10.9748 18.783 10.5938C19.044 10.7418 19.233 11.9748 19.296 12.5728L18.969 12.1088L18.456 13.2067L18.565 12.3567Z" fill="#FBE0DE"/>
<path d="M6.258 13.1451C5.71 11.3641 6.03 9.77513 6.258 9.20312C5.723 9.66012 5.529 11.5621 5.518 12.4481C5.78 13.8831 5.236 14.8341 4.961 15.1081C5.558 14.9211 5.895 13.7681 5.962 13.3001L6.497 14.7391L6.258 13.1451ZM17.802 13.1451C18.35 11.3641 18.031 9.77513 17.802 9.20312C18.337 9.66012 18.539 11.5491 18.55 12.4351C18.288 13.8701 18.822 14.8301 19.097 15.1031C18.579 15.0121 18.217 13.8561 18.149 13.3871L17.569 14.7091L17.802 13.1451Z" fill="#E77EA0"/>
<path d="M5.99401 14.4121C5.82001 14.9191 5.26801 15.0771 5.01401 15.0921C5.59901 14.7711 5.91401 13.7041 5.96701 13.2461L6.50701 14.7521C6.28301 14.7281 6.07201 14.5151 5.99401 14.4121ZM18.067 14.4141C18.241 14.9211 18.793 15.0781 19.047 15.0941C18.462 14.7721 18.212 13.7741 18.16 13.3161L17.554 14.7541C17.778 14.7291 17.989 14.5171 18.067 14.4141Z" fill="#C35676"/>
<path d="M5.12201 10.6897C5.32101 9.63969 6.05501 8.71969 6.34101 8.55469L6.82601 9.04169C6.26601 10.2297 6.20801 12.3617 6.26501 13.1707C5.54301 12.2677 5.94201 10.1207 6.24301 9.23369L5.12201 10.6897ZM18.814 10.4547C18.614 9.40369 17.994 8.81069 17.709 8.64569L17.221 9.07169C17.781 10.2587 17.875 12.2117 17.818 13.0217C18.54 12.1187 18.118 10.1197 17.818 9.23369L18.814 10.4547Z" fill="#85354F"/>
<path d="M6.336 8.56879C6.361 9.00179 6.688 9.07279 6.833 9.05279C7.144 8.19879 7.953 7.30379 8.327 6.95879C8.103 6.67379 8.021 6.04379 8.017 5.77079C7.767 5.67079 7.497 5.95579 7.394 6.11079C6.262 5.81379 6.134 6.69779 6.212 7.17779C5.627 7.78379 6.052 8.35879 6.336 8.56879ZM17.725 8.56879C17.7 9.00179 17.369 9.10179 17.225 9.08079C16.767 8.19379 16.114 7.30079 15.74 6.95679C15.964 6.67179 16.04 6.04379 16.045 5.77079C16.294 5.67079 16.564 5.95579 16.667 6.11079C17.799 5.81379 17.927 6.69779 17.849 7.17779C18.434 7.78379 18.009 8.35879 17.725 8.56879Z" fill="#E3D7DA"/>
<path d="M8.31 6.96878C7.986 6.48878 7.76 4.64878 7.668 3.80078L9.565 6.07778C9.272 6.16478 8.501 6.86778 8.311 6.96978M15.749 6.96078C16.109 6.52478 16.3 4.64978 16.393 3.80078L14.68 6.17278C14.973 6.26078 15.553 6.76078 15.749 6.96078Z" fill="#C25774"/>
<path d="M7.62301 3C7.08401 3.606 6.81401 5.31 6.76001 6.072C6.92601 6.154 7.28501 6.328 7.39001 6.362C7.49501 6.398 7.79701 5.995 7.95801 5.772C7.85001 5.238 7.68201 3.704 7.62301 3ZM16.435 3C16.975 3.606 17.248 5.31 17.302 6.072C17.0958 6.17673 16.8857 6.27346 16.672 6.362C16.566 6.398 16.282 6.019 16.12 5.796C16.2425 4.86605 16.3475 3.93389 16.435 3Z" fill="#EA988D"/>
<path d="M10.377 5.722L7.62401 3C7.50701 4.176 8.37601 5.586 8.82501 6.144H9.38101L10.377 5.722ZM13.684 5.722L16.437 3C16.554 4.176 15.685 5.586 15.237 6.144H14.68L13.684 5.722Z" fill="#ED92A4"/>
<defs>
<linearGradient id="paint0_linear_4821_9488" x1="12" y1="3.80225" x2="12" y2="20.9983" gradientUnits="userSpaceOnUse">
<stop stop-color="#FDECDE"/>
<stop offset="0.56" stop-color="#FAD1C4"/>
<stop offset="1" stop-color="#FDECDE"/>
</linearGradient>
<linearGradient id="paint1_linear_4821_9488" x1="12" y1="3.80328" x2="12" y2="20.9993" gradientUnits="userSpaceOnUse">
<stop stop-color="#FDECDE"/>
<stop offset="0.56" stop-color="#FAD1C4"/>
<stop offset="1" stop-color="#FDECDE"/>
</linearGradient>
</defs>
</svg>
