<svg width="16" height="16" viewBox="0 0 16 16" fill="none" xmlns="http://www.w3.org/2000/svg">
<path d="M6.38649 3.099C6.38649 3.099 5.01399 2.785 3.89849 3.254C2.85349 3.694 2.70499 4.5325 2.79849 5.014C2.89249 5.495 3.19499 5.9165 3.80099 5.955C4.21499 5.9815 4.35499 5.744 4.29749 5.644C4.26749 5.5925 3.82849 5.315 4.02999 4.969C4.19849 4.68 4.76749 4.9465 4.92999 5.1975C5.08249 5.4325 5.28249 5.7725 5.28249 5.7725C5.28249 5.7725 7.00749 5.0335 6.97149 4.9865C6.93549 4.9395 6.38649 3.099 6.38649 3.099Z" fill="#E74B8C"/>
<path d="M6.304 4.06353L5.764 3.58203L4.879 4.65603L5.3825 5.44103L6.6675 4.87853L6.304 4.06353Z" fill="#FCD817"/>
<path d="M3.6065 4.53022C3.539 4.72872 3.599 5.04772 3.349 5.07522C3.0915 5.10422 2.905 4.79272 3.0615 4.29522C3.1965 3.86622 3.729 3.61122 3.935 3.96122C4.0865 4.21872 3.729 4.16622 3.6065 4.53022Z" fill="#EF7FAD"/>
<path d="M4.85499 2.625C4.81999 2.684 4.20999 3.5815 4.20999 3.5815L4.79599 4.514L5.49999 4.1565L5.64649 3.4465L4.85499 2.625Z" fill="#BBD047"/>
<path d="M4.186 1.9375L3.6525 2.6115L4.175 3.5215L4.661 3.28L4.885 2.641L4.186 1.9375Z" fill="#62A5A8"/>
<path d="M3.4585 1.20703L3.09 1.59453L3.635 2.57453L3.946 2.34603L4.1625 1.91103L3.4585 1.20703Z" fill="#38B2E8"/>
<path d="M2.75501 0.719262C2.62901 0.845262 3.08901 1.58776 3.08901 1.58776C3.08901 1.58776 3.42901 1.20026 3.42901 1.17776C3.43001 1.15276 2.90151 0.571762 2.75501 0.719262Z" fill="#A37BCB"/>
<path d="M5.64751 3.39808C5.81751 3.35058 5.93501 3.66808 5.78251 3.99058C5.64651 4.27808 5.44901 4.50058 5.18401 4.64808C5.05251 4.72058 4.85501 4.80058 4.77901 4.65908C4.69651 4.50808 4.79001 4.43058 4.95501 4.31308C5.10651 4.20408 5.26001 4.04308 5.34751 3.89058C5.43501 3.73808 5.52001 3.43308 5.64751 3.39808ZM4.83751 2.54808C4.97501 2.50808 5.07751 2.78308 4.95351 3.05958C4.84351 3.30558 4.70751 3.50208 4.49501 3.62808C4.39001 3.69058 4.23001 3.75958 4.16901 3.63808C4.10251 3.50808 4.16501 3.41708 4.29751 3.31558C4.42001 3.22308 4.52601 3.05308 4.59651 2.92308C4.66751 2.79308 4.73501 2.57808 4.83751 2.54808ZM4.13651 1.79808C4.25001 1.82958 4.33001 2.03058 4.22751 2.23708C4.13651 2.42058 4.04751 2.51808 3.87001 2.61208C3.78101 2.65808 3.67851 2.71708 3.62251 2.64708C3.55101 2.55908 3.52501 2.43408 3.63601 2.35958C3.73851 2.29058 3.85351 2.20708 3.93001 2.06058C3.98151 1.95908 4.03101 1.76958 4.13651 1.79808ZM3.38401 1.10308C3.46151 1.08408 3.55651 1.24708 3.48751 1.37658C3.42651 1.49308 3.34751 1.56658 3.22751 1.62658C3.16901 1.65658 3.10251 1.67408 3.06751 1.61808C3.03001 1.55658 2.99501 1.51408 3.07001 1.46658C3.14958 1.41049 3.21892 1.34115 3.27501 1.26158C3.31501 1.20058 3.32651 1.11808 3.38401 1.10308Z" fill="#A364B2"/>
<path d="M6.28499 14.9862C6.15899 14.9022 6.78499 12.7247 7.03099 12.1447C7.27749 11.5637 7.42399 11.0772 7.42399 11.0772C7.42399 11.0772 6.24499 11.2587 5.48249 11.2647C4.90149 11.2697 4.05749 11.1947 4.05749 11.1947L2.36749 8.97766C2.36749 8.97766 2.84249 8.11516 3.12349 7.76366C3.40499 7.41116 4.24999 6.26766 4.67249 5.86366C5.09499 5.45866 5.67499 5.03616 5.92249 4.93116C6.16849 4.82616 6.32749 4.75516 6.32749 4.75516C6.32749 4.75516 6.20399 3.99866 6.25749 3.52366C6.30999 3.04866 6.98349 1.72266 7.08999 1.72266C7.23149 1.72266 7.84099 2.62616 7.96399 3.24116C8.08749 3.85616 9.42499 5.58116 9.42499 5.58116L13.3315 12.9727C13.3315 12.9727 13.4015 14.9437 13.3835 15.0137C13.3665 15.0837 11.2015 15.3837 9.88149 15.3837C8.56149 15.3837 6.39149 15.0577 6.28499 14.9862Z" fill="#DFDFDF"/>
<path d="M8.9465 8.67191C8.8165 8.66591 8.445 9.40941 8.0725 9.95691C7.759 10.4169 7.3915 10.6384 6.999 10.8434C6.594 11.0544 5.9925 11.1919 6.1975 11.2334C6.4025 11.2744 7.6265 11.1384 8.0365 10.9659C8.2675 10.8694 8.59 10.3934 8.755 10.0769C8.92 9.76091 9.2165 8.68291 8.9465 8.67191Z" fill="#B0B0B0"/>
<path d="M6.72401 7.24347C6.75001 7.63097 6.60901 7.96497 6.20501 7.99097C5.92001 8.00947 5.70601 7.72097 5.67001 7.36847C5.64151 7.09347 5.75601 6.73847 6.13251 6.68597C6.48601 6.63597 6.69901 6.88997 6.72351 7.24347" fill="#303030"/>
<path d="M7.94651 3.24825C7.94651 3.24825 9.00751 3.72575 9.41651 3.63575C9.73251 3.56575 9.84251 3.33725 9.85651 3.10825C9.87351 2.80075 9.60151 2.83575 9.55751 2.71225C9.51401 2.58825 9.83901 2.36825 10.2175 2.43975C10.5965 2.50975 11.0475 2.85975 11.039 3.42225C11.03 3.98475 10.684 4.28725 10.684 4.28725C10.684 4.28725 11.5965 4.24325 12.2065 4.86825C12.8925 5.57225 12.7425 6.72475 12.7425 6.72475C12.7425 6.72475 13.104 6.77675 13.235 6.59175C13.2898 6.51681 13.3201 6.42676 13.3217 6.33393C13.3233 6.2411 13.2962 6.15005 13.244 6.07325C13.1565 5.94975 13.4115 5.87075 13.5775 5.94075C13.745 6.01075 14.5175 6.56425 14.0975 7.45825C13.8375 8.01325 13.1815 8.09675 13.1815 8.09675C13.1815 8.09675 14.2815 8.58325 14.684 9.80925C15.1265 11.1593 14.6425 12.0573 14.1415 12.9183C13.64 13.7808 13.685 13.8323 13.6575 14.1143C13.6225 14.4673 13.516 14.9068 13.385 14.8973C13.2525 14.8883 13.095 14.5183 13.015 14.1148C12.936 13.7098 12.4425 13.3133 12.0475 12.9533C11.6525 12.5933 10.66 11.6418 10.375 10.7718C10.0135 9.67175 10.199 8.14075 10.199 8.14075C10.199 8.14075 9.10751 7.63925 8.50001 6.63575C7.84251 5.54975 7.90151 4.75325 7.90151 4.75325C7.90151 4.75325 8.06851 4.27825 8.07751 3.95175C8.08601 3.62575 7.94651 3.24825 7.94651 3.24825Z" fill="#E74B8C"/>
<path d="M9.66251 4.00588C9.73851 4.33338 10.34 4.16488 10.455 3.60988C10.57 3.05488 10.2525 2.80838 10.0675 2.91488C9.88251 3.01988 10.111 3.30238 9.98851 3.53988C9.86651 3.77738 9.60001 3.74088 9.66251 4.00588ZM12.7125 7.20088C12.6075 7.52088 13.156 7.63188 13.586 7.28688C14.0275 6.93188 13.9025 6.40688 13.6475 6.43338C13.3235 6.46688 13.461 6.83338 13.2325 6.97238C13.004 7.11238 12.7975 6.94438 12.7125 7.20088ZM8.96751 4.41838C8.54501 4.36588 8.48651 5.18938 8.74751 5.75588C9.16151 6.65338 9.84751 6.48588 10.3225 7.06738C10.69 7.51738 10.604 8.09738 10.9825 8.08838C11.361 8.07938 11.4575 7.44588 10.8775 6.67188C10.2965 5.89838 9.56651 5.89838 9.34651 5.43188C9.12501 4.96488 9.46001 4.48088 8.96751 4.41838ZM11.114 8.40488C10.63 8.68088 10.975 9.30738 11.2375 9.36338C11.6075 9.44188 11.7735 9.19588 11.8185 8.94938C11.8635 8.70288 11.606 8.12338 11.1135 8.40438M11.4835 9.89138C11.101 9.95388 11.1435 10.3379 11.2105 10.7279C11.3255 11.3969 11.677 12.0394 12.0905 12.3819C12.4905 12.7129 12.7155 12.6104 12.8295 12.4779C12.9645 12.3229 12.838 12.0469 12.6795 11.8619C12.521 11.6769 12.316 11.4394 12.1785 11.2369C12.011 10.9904 11.991 10.6704 11.9585 10.4894C11.897 10.1379 11.861 9.82938 11.4835 9.89138Z" fill="#F081AF"/>
<path d="M1.4175 11.6604C1.805 12.3914 2.7115 12.2054 2.7115 12.2054C2.7115 12.2054 3.565 11.8179 3.565 11.7914C3.565 11.7649 4.1275 11.0529 4.1275 11.0529C4.1275 11.0529 3.9775 10.4104 3.3975 9.70641C2.939 9.15141 2.456 8.87891 2.456 8.87891L1.4 9.82891C1.4 9.82891 0.872498 10.6304 1.4175 11.6604Z" fill="white"/>
<path d="M2.1125 9.73292C2.0515 9.96142 2.254 10.0494 2.324 10.1294C2.394 10.2079 2.2275 10.5429 2.465 10.6304C2.7025 10.7179 2.975 10.3229 2.8875 9.97892C2.7925 9.61142 2.205 9.39042 2.1125 9.73292Z" fill="#90909B"/>
<path d="M2.5615 8.84879C2.5 8.73129 2.365 8.79029 2.2325 8.91379C2.1 9.03779 1.3525 9.58279 1.1415 10.0813C0.9865 10.4478 0.875 11.1538 1.2775 11.7288C1.695 12.3263 2.07 12.3838 2.641 12.3363C3.4775 12.2663 3.94 11.5803 4.0285 11.4653C4.117 11.3503 4.31 11.1013 4.205 10.9788C4.1 10.8548 4.001 11.0338 3.865 11.2188C3.72102 11.4162 3.55587 11.5973 3.3725 11.7588C3.27 11.8513 2.976 12.0113 2.8535 12.0378C2.73 12.0638 3.0975 11.8528 3.2415 11.6063C3.339 11.4403 3.54 11.0438 3.54 11.0438L3.1965 10.9388C3.1965 10.9388 3.029 11.3028 2.8975 11.4613C2.765 11.6198 2.3525 11.9773 2.2285 12.0038C2.105 12.0298 1.6385 11.8223 1.4315 11.4498C1.2315 11.0923 1.2 10.5788 1.4025 10.1738C1.605 9.76879 2.115 9.35479 2.274 9.23229C2.43 9.10629 2.6405 8.99879 2.5615 8.84879Z" fill="#AFAFAF"/>
<path d="M3.56499 10.7031C3.46999 10.6201 3.31249 10.6791 3.23149 10.7901C3.14899 10.9016 3.11999 11.0301 3.28349 11.1191C3.44749 11.2066 3.55349 11.1131 3.62999 11.0076C3.70499 10.9016 3.65249 10.7791 3.56499 10.7026" fill="#90909B"/>
</svg>
