<svg width="16" height="16" viewBox="0 0 16 16" fill="none" xmlns="http://www.w3.org/2000/svg">
<path d="M14.92 9.65L13.235 6.445C13.09 6.17 12.805 6 12.495 6H9L8.5 10.5L15 10C15 9.865 14.975 9.775 14.92 9.65Z" fill="#E6E6E6"/>
<path d="M14.845 9.49891H11.55C11.245 9.49891 11 9.25391 11 8.94891V7.05391C11 6.74891 11.245 6.50391 11.55 6.50391H13.26L14.845 9.49891Z" fill="#26C9FC"/>
<path d="M15 10V12.615C15 13.105 14.6 13.505 14.11 13.505H1.9C1.405 13.505 1 13.1 1 12.605V10L4.75 8.5L9 10H15Z" fill="#FF822D"/>
<path d="M10 13.25C10 13.7141 10.1844 14.1592 10.5126 14.4874C10.8408 14.8156 11.2859 15 11.75 15C12.2141 15 12.6592 14.8156 12.9874 14.4874C13.3156 14.1592 13.5 13.7141 13.5 13.25C13.5 12.7859 13.3156 12.3408 12.9874 12.0126C12.6592 11.6844 12.2141 11.5 11.75 11.5C11.2859 11.5 10.8408 11.6844 10.5126 12.0126C10.1844 12.3408 10 12.7859 10 13.25ZM2.5 13.25C2.5 13.7141 2.68437 14.1592 3.01256 14.4874C3.34075 14.8156 3.78587 15 4.25 15C4.71413 15 5.15925 14.8156 5.48744 14.4874C5.81563 14.1592 6 13.7141 6 13.25C6 12.7859 5.81563 12.3408 5.48744 12.0126C5.15925 11.6844 4.71413 11.5 4.25 11.5C3.78587 11.5 3.34075 11.6844 3.01256 12.0126C2.68437 12.3408 2.5 12.7859 2.5 13.25Z" fill="#321B41"/>
<path d="M11 13.25C11 13.4489 11.079 13.6397 11.2197 13.7803C11.3603 13.921 11.5511 14 11.75 14C11.9489 14 12.1397 13.921 12.2803 13.7803C12.421 13.6397 12.5 13.4489 12.5 13.25C12.5 13.0511 12.421 12.8603 12.2803 12.7197C12.1397 12.579 11.9489 12.5 11.75 12.5C11.5511 12.5 11.3603 12.579 11.2197 12.7197C11.079 12.8603 11 13.0511 11 13.25ZM3.5 13.25C3.5 13.3485 3.5194 13.446 3.55709 13.537C3.59478 13.628 3.65003 13.7107 3.71967 13.7803C3.78931 13.85 3.87199 13.9052 3.96299 13.9429C4.05398 13.9806 4.15151 14 4.25 14C4.34849 14 4.44602 13.9806 4.53701 13.9429C4.62801 13.9052 4.71069 13.85 4.78033 13.7803C4.84997 13.7107 4.90522 13.628 4.94291 13.537C4.9806 13.446 5 13.3485 5 13.25C5 13.0511 4.92098 12.8603 4.78033 12.7197C4.63968 12.579 4.44891 12.5 4.25 12.5C4.05109 12.5 3.86032 12.579 3.71967 12.7197C3.57902 12.8603 3.5 13.0511 3.5 13.25Z" fill="#F4F4F4"/>
<path d="M0.999905 11H1.2499C1.6749 11 2.0199 11.355 1.9999 11.785C1.9799 12.19 1.6299 12.5 1.2249 12.5H0.999905V11Z" fill="#CA0B4A"/>
<path d="M7.5 3.5H2.5C1.67 3.5 1 4.17 1 5V10H9V5C9 4.17 8.33 3.5 7.5 3.5ZM15 12.5H14.545C14.245 12.5 14 12.255 14 11.955V11.045C14 10.745 14.245 10.5 14.545 10.5H15V12.5Z" fill="#FCD53F"/>
</svg>
