<svg width="18" height="18" viewBox="0 0 18 18" fill="none" xmlns="http://www.w3.org/2000/svg">
<g clip-path="url(#clip0_4821_9379)">
<path d="M17.8009 8.1382C16.5099 6.2577 13.8409 9.0252 8.96994 9.5877C7.16644 9.7957 5.54145 11.3017 3.44645 11.1582C2.58745 11.0992 1.38795 8.6277 0.489945 9.0217C0.0279451 9.2247 -0.184055 9.9022 0.290945 10.4112L5.56495 16.7042C5.56495 16.7042 5.83295 17.0132 6.73595 16.7992C6.95845 16.8647 10.3034 15.5242 12.2374 12.8407C12.7004 12.1982 13.2524 11.6632 13.8239 11.2162C15.6794 9.8442 17.6964 9.3662 17.6964 9.3662C17.9544 9.1532 18.0149 8.9267 18.0009 8.7302C18.0179 8.4022 17.8009 8.1382 17.8009 8.1382Z" fill="#5C913B"/>
<path d="M5.73791 5.1368C3.84641 7.7618 0.533906 9.0053 0.533906 9.0053C-0.0840938 9.5288 0.437906 10.1458 0.437906 10.1458L5.65691 16.3253C5.65691 16.3253 5.91791 16.6338 6.79691 16.4198C6.79691 16.4198 10.1094 15.1788 12.0004 12.5538C13.9499 9.8488 17.4654 8.9948 17.4654 8.9948C18.0829 8.4713 17.5614 7.8533 17.5614 7.8533L12.3424 1.6748C12.3424 1.6748 12.0814 1.3658 11.2024 1.5788C11.2024 1.5788 7.68741 2.4308 5.73791 5.1368Z" fill="#A7D28B"/>
<path d="M11 9.75C12.5188 9.75 13.75 8.51878 13.75 7C13.75 5.48122 12.5188 4.25 11 4.25C9.48122 4.25 8.25 5.48122 8.25 7C8.25 8.51878 9.48122 9.75 11 9.75Z" fill="#77B255"/>
<path d="M6.43641 15.9637C5.99591 15.9637 5.83441 15.7997 5.81241 15.7747L1.10791 10.2832C1.09891 10.2727 0.860407 9.9997 0.889407 9.6527C0.906907 9.4422 1.01591 9.2547 1.21291 9.0952L1.24441 9.0762C1.27491 9.0642 4.32591 7.8102 6.03591 5.5437C7.84491 3.1457 10.9654 2.1167 10.9964 2.1067C11.8689 1.9037 12.1544 2.1937 12.1849 2.2277L16.8274 7.7497C16.8359 7.7587 17.0739 8.0327 17.0449 8.3802C17.0274 8.5902 16.9184 8.7777 16.7214 8.9372L16.6719 8.9617C16.6414 8.9692 13.6074 9.7232 11.8499 12.0522C10.1004 14.3722 7.04641 15.8732 7.01591 15.8877C6.78391 15.9427 6.59291 15.9637 6.43641 15.9637ZM6.00091 15.6102C6.00141 15.6102 6.22691 15.8182 6.93341 15.6542C6.93741 15.6487 9.93791 14.1732 11.6514 11.9022C13.3699 9.6247 16.2639 8.8112 16.5849 8.7267C16.7136 8.6157 16.7839 8.4942 16.7959 8.3622C16.8169 8.1222 16.6399 7.9157 16.6384 7.9137L11.9959 2.3912C11.9949 2.3912 11.7709 2.1837 11.0639 2.3477C11.0434 2.3547 7.99641 3.3607 6.23591 5.6942C4.55291 7.9247 1.61641 9.1917 1.35691 9.3007C1.22291 9.41403 1.15007 9.5382 1.13841 9.6732C1.11841 9.9112 1.29441 10.1167 1.29591 10.1187L6.00091 15.6102Z" fill="#5C913B"/>
<path d="M10.638 11.0838L10.635 14.0538L10.8835 14.3488C11.368 13.9068 11.8335 13.4098 12.236 12.8508C12.6403 12.2937 13.1156 11.7917 13.65 11.3578L13.4085 11.0703L10.638 11.0838Z" fill="#FFAC33"/>
<path d="M13.3989 11.0588L7.14593 3.65234C6.63793 4.07034 6.14993 4.55784 5.73493 5.13434C5.32943 5.69734 4.85743 6.19284 4.36743 6.62984L5.09843 7.49534L5.09793 7.49584L10.6354 14.0528C11.1427 13.6032 11.5995 13.0998 11.9979 12.5513C12.4129 11.9753 12.9004 11.4883 13.4079 11.0703L13.3989 11.0588Z" fill="#FFE8B6"/>
<path d="M7.23953 11.2773C6.46103 10.3553 4.81303 11.8513 4.34303 11.2948C4.11553 11.0253 4.26203 10.6758 4.56103 10.4238C5.06353 9.99881 5.42603 10.2463 5.65353 10.0538C5.81503 9.91781 5.80653 9.75131 5.71053 9.63681C5.48753 9.37331 4.91753 9.51081 4.47453 9.76681L4.25903 9.51181C4.19357 9.43892 4.10231 9.39438 4.00457 9.38762C3.90684 9.38086 3.81031 9.41241 3.73543 9.47558C3.66056 9.53876 3.61322 9.6286 3.60343 9.72608C3.59365 9.82356 3.6222 9.92101 3.68303 9.99781L3.90603 10.2623C3.56753 10.7113 3.45253 11.3073 3.85303 11.7808C4.60103 12.6658 6.26953 11.1948 6.79453 11.8168C6.97653 12.0328 6.92553 12.4448 6.54253 12.7678C5.96853 13.2533 5.44853 13.0258 5.21503 13.2228C5.10103 13.3183 5.08053 13.5003 5.20203 13.6448C5.39553 13.8733 6.01203 13.8243 6.60453 13.4553L6.60553 13.4583L6.84903 13.7463C6.88047 13.7859 6.91953 13.8187 6.96389 13.8429C7.00825 13.867 7.05701 13.8821 7.10728 13.887C7.15755 13.892 7.20831 13.8869 7.25655 13.8719C7.3048 13.8569 7.34954 13.8324 7.38813 13.7998C7.42672 13.7672 7.45838 13.7271 7.48122 13.6821C7.50407 13.637 7.51763 13.5878 7.52112 13.5374C7.52461 13.487 7.51795 13.4365 7.50153 13.3887C7.48511 13.3409 7.45926 13.2969 7.42553 13.2593L7.18203 12.9713L7.17253 12.9633C7.57203 12.4743 7.70703 11.8298 7.23953 11.2773Z" fill="#5C913B"/>
<path d="M16.2281 16.2931L16.2421 16.2826C16.2761 16.2486 16.3026 16.2096 16.3326 16.1721C16.3536 16.1461 16.3771 16.1211 16.3966 16.0946C16.4141 16.0696 16.4286 16.0441 16.4446 16.0186C17.1546 14.9251 16.6896 13.0711 15.2841 11.6651C13.8786 10.2591 12.0236 9.79415 10.9306 10.5046C10.9046 10.5201 10.8791 10.5346 10.8541 10.5526C10.8276 10.5721 10.8021 10.5956 10.7771 10.6161C10.7401 10.6466 10.7011 10.6726 10.6666 10.7071C10.6622 10.7118 10.6586 10.7165 10.6556 10.7211C10.6501 10.7266 10.6436 10.7301 10.6376 10.7361L10.6406 10.7386C10.1406 11.2696 10.1346 12.0911 10.6376 12.5946C11.1416 13.0986 11.9626 13.0916 12.4941 12.5916L12.4996 12.5976C12.4891 12.6076 12.4776 12.6141 12.4676 12.6241C11.9381 13.1536 11.9256 13.9981 12.4381 14.5116C12.9511 15.0241 13.7966 15.0116 14.3256 14.4821C14.3356 14.4721 14.3421 14.4606 14.3521 14.4501L14.3576 14.4561C13.8576 14.9871 13.8511 15.8086 14.3551 16.3126C14.8586 16.8156 15.6796 16.8096 16.2106 16.3096L16.2136 16.3126C16.2182 16.3056 16.2231 16.2991 16.2281 16.2931Z" fill="#E1E8ED"/>
<path d="M10.6385 12.6155C11.0915 13.068 11.799 13.105 12.3235 12.746C12.543 12.371 12.606 12.0145 12.606 11.903C11.5025 12.726 10.5175 11.9075 10.297 11.418C10.2055 11.841 10.3165 12.293 10.6385 12.6155ZM14.288 14.5355C14.437 14.326 14.5525 14.1235 14.6065 13.9865C13.904 14.6305 12.561 14.159 12.154 13.1375C11.975 13.6125 12.0665 14.1595 12.4395 14.5325C12.9405 15.0335 13.7565 15.0295 14.288 14.5355ZM16.215 16.333L16.2295 16.315C16.2349 16.3113 16.2395 16.3076 16.2435 16.304C16.278 16.27 16.3045 16.231 16.334 16.194C16.3555 16.1675 16.3785 16.143 16.398 16.116C16.416 16.0915 16.4305 16.0655 16.4465 16.04C16.479 15.99 16.4965 15.931 16.524 15.878C15.26 16.4435 14.3165 15.484 14.052 15.0055C13.9045 15.464 14.0005 15.9775 14.3565 16.334C14.8595 16.8375 15.6805 16.8315 16.212 16.331L16.215 16.333Z" fill="#CCD6DD"/>
<path d="M6.97803 6.25063L6.99203 6.23963C7.02653 6.20563 7.05303 6.16663 7.08253 6.12963C7.10353 6.10363 7.12653 6.07913 7.14603 6.05213C7.16403 6.02713 7.17853 6.00163 7.19453 5.97613C7.90453 4.88263 7.43903 3.02813 6.03353 1.62263C4.62803 0.217126 2.77353 -0.248874 1.68003 0.461126C1.65453 0.477126 1.62853 0.491626 1.60353 0.509626C1.57653 0.529126 1.55203 0.552126 1.52603 0.573126C1.48903 0.603126 1.45003 0.629126 1.41603 0.663626L1.40503 0.677626L1.38703 0.692626L1.38953 0.695126C0.889532 1.22613 0.883532 2.04763 1.38703 2.55113C1.89053 3.05463 2.71203 3.04863 3.24303 2.54863L3.24853 2.55413C3.23803 2.56363 3.22653 2.57063 3.21653 2.58063C2.68703 3.11013 2.67453 3.95463 3.18753 4.46813C3.70053 4.98163 4.54553 4.96863 5.07503 4.43913C5.08503 4.42913 5.09153 4.41763 5.10153 4.40713L5.10703 4.41263C4.60703 4.94363 4.60053 5.76513 5.10453 6.26863C5.60803 6.77213 6.42903 6.76613 6.96003 6.26563L6.96253 6.26863L6.97803 6.25063Z" fill="#E1E8ED"/>
<path d="M1.38657 2.55006C1.83957 3.00306 2.54707 3.04006 3.07157 2.68006C3.29107 2.30506 3.35357 1.94906 3.35357 1.83756C2.25057 2.66006 1.26507 1.84106 1.04507 1.35156C0.953571 1.77506 1.06457 2.22756 1.38657 2.55006ZM5.03707 4.46906C5.18557 4.25956 5.30107 4.05806 5.35457 3.92106C4.65157 4.56506 3.30857 4.09306 2.90207 3.07156C2.72307 3.54656 2.81457 4.09356 3.18707 4.46656C3.68907 4.96806 4.50557 4.96356 5.03707 4.46906ZM6.96257 6.26756C6.9679 6.2619 6.9729 6.2559 6.97757 6.24956L6.99157 6.23856C7.02607 6.20456 7.05257 6.16556 7.08207 6.12856C7.10307 6.10256 7.12607 6.07806 7.14557 6.05106C7.16357 6.02606 7.17807 6.00056 7.19407 5.97506C7.22657 5.92506 7.24407 5.86556 7.27157 5.81256C6.00757 6.37806 5.06407 5.41906 4.79957 4.94056C4.65207 5.39906 4.74807 5.91256 5.10407 6.26856C5.60757 6.77206 6.42857 6.76606 6.95957 6.26556L6.96257 6.26756Z" fill="#CCD6DD"/>
</g>
<defs>
<clipPath id="clip0_4821_9379">
<rect width="18" height="18" fill="white"/>
</clipPath>
</defs>
</svg>
