<svg width="16" height="16" viewBox="0 0 16 16" fill="none" xmlns="http://www.w3.org/2000/svg"><g clip-path="url(#clip0_4821_9478)"><path d="M15.6755 15.3003C15.6755 15.5065 15.5068 15.6753 15.3005 15.6753H0.699463C0.493213 15.6753 0.324463 15.5065 0.324463 15.3003V0.699219C0.324463 0.492969 0.493213 0.324219 0.699463 0.324219H15.3005C15.5068 0.324219 15.6755 0.492969 15.6755 0.699219V15.3003Z" fill="#76DFFF"/><path d="M9.12586 6.72071H8.59392L8.38476 3.1734H8.38708V2.2964C8.38708 2.23673 8.36337 2.1795 8.32118 2.1373C8.27898 2.0951 8.22175 2.0714 8.16208 2.0714H8.12683L8.10567 1.09559C8.10502 1.06837 8.09392 1.04246 8.07467 1.02321C8.05543 1.00396 8.02951 0.992863 8.0023 0.992212C7.97427 0.991609 7.94715 1.00216 7.92691 1.02155C7.90666 1.04093 7.89494 1.06756 7.89433 1.09559L7.87317 2.0714H7.84023C7.78056 2.0714 7.72333 2.0951 7.68113 2.1373C7.63894 2.1795 7.61523 2.23673 7.61523 2.2964V3.1734L7.40608 6.72071H6.87414C6.81447 6.72071 6.75724 6.74442 6.71504 6.78661C6.67284 6.82881 6.64914 6.88604 6.64914 6.94571V8.75896C6.64914 8.81864 6.67284 8.87587 6.71504 8.91806C6.75724 8.96026 6.81447 8.98396 6.87414 8.98396H9.1258C9.18547 8.98396 9.2427 8.96026 9.28489 8.91806C9.32709 8.87587 9.3508 8.81864 9.3508 8.75896V6.94571C9.35081 6.91617 9.345 6.88691 9.3337 6.85961C9.3224 6.83231 9.30583 6.8075 9.28494 6.78661C9.26406 6.76571 9.23925 6.74914 9.21196 6.73783C9.18466 6.72653 9.1554 6.72071 9.12586 6.72071Z" fill="#F9F9F7"/><path d="M7.45564 5.87853H8.5443L8.59399 6.721H7.40599L7.45564 5.87853ZM7.49471 5.21634H8.5053L8.45561 4.37387H7.54436L7.49471 5.21634ZM8.38474 3.17188H7.61524L7.5834 3.71172H8.41655L8.38474 3.17188ZM12.8387 14.7668C11.7455 14.0465 10.8771 13.2329 10.2575 12.3487C9.53705 11.3204 9.15246 10.1889 9.11246 8.98244H6.88749C6.84749 10.1889 6.46293 11.3204 5.74243 12.3487C5.12289 13.2329 4.25446 14.0465 3.16124 14.7668C2.61286 15.1281 2.06174 15.4296 1.55518 15.6758H3.23718C4.42905 14.8882 5.96346 14.4301 7.60933 14.3674V15.6758H8.39058V14.3674C10.0365 14.4301 11.5709 14.8882 12.7628 15.6758H14.4448C13.9382 15.4296 13.3871 15.1281 12.8387 14.7668ZM7.60936 13.5855C7.36034 13.5945 7.1117 13.6122 6.86389 13.6384L7.60936 13.1864V13.5855ZM7.60936 12.9671L6.40568 13.697C6.09114 13.7441 5.78193 13.8043 5.48014 13.8789C5.50733 13.851 5.53386 13.8229 5.56058 13.7949L7.60936 12.5439V12.9671ZM7.60936 12.3242L5.98718 13.3147C6.12318 13.1504 6.25275 12.9809 6.37561 12.8065C6.43542 12.721 6.49351 12.6343 6.54983 12.5465L7.60936 11.8995V12.3242ZM7.60936 11.6798L6.76174 12.1974C6.87587 11.9973 6.98027 11.7918 7.07458 11.5817L7.60936 11.2551V11.6798ZM7.60936 11.0354L7.19952 11.2857C7.26923 11.1089 7.33147 10.9292 7.38608 10.7471L7.60936 10.6108V11.0354ZM7.60936 10.3911L7.45921 10.4827C7.52405 10.23 7.57419 9.97373 7.60936 9.71519V10.3911ZM8.39061 9.71522C8.42481 9.96609 8.47309 10.2148 8.53524 10.4603L8.39061 10.372V9.71522ZM8.39061 10.5917L8.60664 10.7236C8.66055 10.9052 8.72204 11.0844 8.79096 11.2608L8.39061 11.0163V10.5917ZM8.39061 11.2361L8.91346 11.5553C9.00634 11.7645 9.10926 11.969 9.22183 12.1683L8.39061 11.6608V11.2361ZM8.39061 11.8804L9.42999 12.5151C9.49258 12.6137 9.55738 12.7109 9.62436 12.8065C9.73777 12.9674 9.85692 13.1242 9.98158 13.2765L8.39061 12.3051V11.8804ZM8.39061 13.5855V13.1707L9.15489 13.6403C8.90086 13.613 8.64594 13.5947 8.39061 13.5855ZM9.60883 13.6992L8.39061 12.9507V12.5248L10.3954 13.7489C10.4364 13.7926 10.4779 13.8359 10.5198 13.8788C10.2227 13.8055 9.91833 13.746 9.60883 13.6992Z" fill="#FF473E"/></g><defs><clipPath id="clip0_4821_9478"><rect width="16" height="16" fill="white"/></clipPath></defs></svg>