<svg width="16" height="16" viewBox="0 0 16 16" fill="none" xmlns="http://www.w3.org/2000/svg"><path d="M2.31999 14.7112C2.18772 14.8441 2.00805 14.9191 1.82051 14.9195C1.63297 14.92 1.45293 14.8459 1.31999 14.7137C1.18705 14.5814 1.1121 14.4017 1.11164 14.2142C1.11117 14.0267 1.18522 13.8466 1.31749 13.7137L9.96099 5.02867C10.0933 4.89573 10.2729 4.82078 10.4605 4.82031C10.648 4.81985 10.8281 4.89389 10.961 5.02617C11.0939 5.15845 11.1689 5.33812 11.1693 5.52565C11.1698 5.71319 11.0958 5.89323 10.9635 6.02617L2.31999 14.7112Z" fill="url(#paint0_linear_4821_9449)"/><path d="M2.31999 14.7112C2.18772 14.8441 2.00805 14.9191 1.82051 14.9195C1.63297 14.92 1.45293 14.8459 1.31999 14.7137C1.18705 14.5814 1.1121 14.4017 1.11164 14.2142C1.11117 14.0267 1.18522 13.8466 1.31749 13.7137L9.96099 5.02867C10.0933 4.89573 10.2729 4.82078 10.4605 4.82031C10.648 4.81985 10.8281 4.89389 10.961 5.02617C11.0939 5.15845 11.1689 5.33812 11.1693 5.52565C11.1698 5.71319 11.0958 5.89323 10.9635 6.02617L2.31999 14.7112Z" fill="url(#paint1_linear_4821_9449)"/><g filter="url(#filter0_ii_4821_9449)"><path fill-rule="evenodd" clip-rule="evenodd" d="M12.76 3.86998C12.7405 3.77934 12.696 3.69599 12.6314 3.62943C12.5669 3.56287 12.485 3.51576 12.395 3.49348C12.1625 3.42981 11.9367 3.34357 11.721 3.23598C11.6748 3.21448 11.6357 3.18023 11.6083 3.13727C11.581 3.09431 11.5664 3.04443 11.5664 2.99348C11.5664 2.94254 11.581 2.89265 11.6083 2.84969C11.6357 2.80673 11.6748 2.77249 11.721 2.75098C11.9368 2.64357 12.1625 2.55749 12.395 2.49398C12.485 2.4717 12.5669 2.4246 12.6314 2.35804C12.696 2.29147 12.7405 2.20812 12.76 2.11748C12.816 1.83898 12.907 1.49498 13.045 1.15898C13.0613 1.1125 13.0917 1.07225 13.1319 1.04377C13.1722 1.01529 13.2202 1 13.2695 1C13.3188 1 13.3668 1.01529 13.407 1.04377C13.4472 1.07225 13.4776 1.1125 13.494 1.15898C13.632 1.49498 13.723 1.83898 13.7785 2.11748C13.7985 2.20788 13.8432 2.29094 13.9077 2.35742C13.9721 2.4239 14.0538 2.47117 14.1435 2.49398C14.347 2.54748 14.567 2.63048 14.8145 2.75098C15.0195 2.85098 15.0195 3.13598 14.8145 3.23598C14.5998 3.34368 14.3751 3.42993 14.1435 3.49348C14.0538 3.51625 13.9722 3.56345 13.9078 3.62984C13.8433 3.69622 13.7986 3.77918 13.7785 3.86948C13.7139 4.19742 13.6185 4.51852 13.4935 4.82848C13.477 4.87479 13.4466 4.91486 13.4065 4.9432C13.3663 4.97154 13.3184 4.98676 13.2692 4.98676C13.2201 4.98676 13.1722 4.97154 13.132 4.9432C13.0918 4.91486 13.0615 4.87479 13.045 4.82848C12.9202 4.51842 12.8248 4.19785 12.76 3.86998Z" fill="url(#paint2_linear_4821_9449)"/></g><g filter="url(#filter1_ii_4821_9449)"><path fill-rule="evenodd" clip-rule="evenodd" d="M7.13098 3.64888C7.11638 3.58103 7.08299 3.51865 7.03463 3.46887C6.98627 3.41909 6.92488 3.38392 6.85748 3.36738C6.68376 3.32001 6.51512 3.2557 6.35398 3.17538C6.31948 3.15928 6.29029 3.13368 6.26984 3.10157C6.24939 3.06947 6.23853 3.03219 6.23853 2.99413C6.23853 2.95606 6.24939 2.91878 6.26984 2.88668C6.29029 2.85457 6.31948 2.82897 6.35398 2.81288C6.53948 2.72288 6.70498 2.66038 6.85748 2.62038C6.92481 2.60387 6.98616 2.56877 7.03451 2.51909C7.08287 2.4694 7.11629 2.40713 7.13098 2.33938C7.17198 2.13088 7.24048 1.87438 7.34348 1.62238C7.35578 1.58772 7.37851 1.55772 7.40854 1.53651C7.43858 1.5153 7.47445 1.50391 7.51123 1.50391C7.548 1.50391 7.58387 1.5153 7.61391 1.53651C7.64395 1.55772 7.66668 1.58772 7.67898 1.62238C7.78198 1.87388 7.84998 2.13088 7.89148 2.33938C7.90612 2.40707 7.93947 2.4693 7.98773 2.51897C8.036 2.56865 8.09723 2.60378 8.16448 2.62038C8.31698 2.66038 8.48098 2.72238 8.66598 2.81288C8.70048 2.82897 8.72966 2.85457 8.75011 2.88668C8.77057 2.91878 8.78143 2.95606 8.78143 2.99413C8.78143 3.03219 8.77057 3.06947 8.75011 3.10157C8.72966 3.13368 8.70048 3.15928 8.66598 3.17538C8.50547 3.25558 8.33751 3.31989 8.16448 3.36738C8.09717 3.38401 8.03589 3.41921 7.98762 3.46898C7.93935 3.51876 7.90604 3.58109 7.89148 3.64888C7.84998 3.85738 7.78198 4.11388 7.67898 4.36538C7.66668 4.40003 7.64395 4.43003 7.61391 4.45124C7.58387 4.47245 7.548 4.48384 7.51123 4.48384C7.47445 4.48384 7.43858 4.47245 7.40854 4.45124C7.37851 4.43003 7.35578 4.40003 7.34348 4.36538C7.25044 4.1337 7.17929 3.89382 7.13098 3.64888Z" fill="url(#paint3_linear_4821_9449)"/></g><g filter="url(#filter2_ii_4821_9449)"><path fill-rule="evenodd" clip-rule="evenodd" d="M11.912 9.13396C11.8974 9.06617 11.8641 9.00384 11.8159 8.95407C11.7676 8.9043 11.7063 8.86909 11.639 8.85246C11.4651 8.80497 11.2963 8.74049 11.135 8.65996C11.1006 8.64381 11.0716 8.61821 11.0512 8.58616C11.0309 8.55411 11.0201 8.51693 11.0201 8.47896C11.0201 8.44099 11.0309 8.40381 11.0512 8.37176C11.0716 8.33971 11.1006 8.31411 11.135 8.29796C11.321 8.20796 11.486 8.14546 11.639 8.10546C11.7063 8.08883 11.7676 8.05362 11.8159 8.00385C11.8641 7.95408 11.8974 7.89175 11.912 7.82396C11.9535 7.61596 12.022 7.35896 12.1245 7.10746C12.1367 7.07263 12.1594 7.04245 12.1895 7.0211C12.2196 6.99975 12.2556 6.98828 12.2925 6.98828C12.3294 6.98828 12.3654 6.99975 12.3955 7.0211C12.4256 7.04245 12.4483 7.07263 12.4605 7.10746C12.5635 7.35896 12.6315 7.61596 12.673 7.82396C12.6876 7.89175 12.7209 7.95408 12.7691 8.00385C12.8174 8.05362 12.8787 8.08883 12.946 8.10546C13.098 8.14546 13.262 8.20746 13.447 8.29746C13.4816 8.31349 13.511 8.3391 13.5315 8.37126C13.5521 8.40342 13.563 8.44079 13.563 8.47896C13.563 8.51713 13.5521 8.5545 13.5315 8.58666C13.511 8.61882 13.4816 8.64443 13.447 8.66046C13.2867 8.74064 13.1189 8.80494 12.946 8.85246C12.8787 8.86909 12.8174 8.9043 12.7691 8.95407C12.7209 9.00384 12.6876 9.06617 12.673 9.13396C12.6247 9.3789 12.5535 9.61878 12.4605 9.85046C12.4483 9.88529 12.4256 9.91547 12.3955 9.93682C12.3654 9.95817 12.3294 9.96964 12.2925 9.96964C12.2556 9.96964 12.2196 9.95817 12.1895 9.93682C12.1594 9.91547 12.1367 9.88529 12.1245 9.85046C12.0315 9.61878 11.9603 9.3789 11.912 9.13396Z" fill="url(#paint4_linear_4821_9449)"/></g><path d="M14.379 7.09747C14.722 7.09747 15 6.81944 15 6.47647C15 6.1335 14.722 5.85547 14.379 5.85547C14.036 5.85547 13.758 6.1335 13.758 6.47647C13.758 6.81944 14.036 7.09747 14.379 7.09747Z" fill="url(#paint5_radial_4821_9449)"/><path d="M14.379 7.09747C14.722 7.09747 15 6.81944 15 6.47647C15 6.1335 14.722 5.85547 14.379 5.85547C14.036 5.85547 13.758 6.1335 13.758 6.47647C13.758 6.81944 14.036 7.09747 14.379 7.09747Z" fill="url(#paint6_radial_4821_9449)"/><path d="M9.5115 11.1834C9.85447 11.1834 10.1325 10.9054 10.1325 10.5624C10.1325 10.2194 9.85447 9.94141 9.5115 9.94141C9.16853 9.94141 8.8905 10.2194 8.8905 10.5624C8.8905 10.9054 9.16853 11.1834 9.5115 11.1834Z" fill="url(#paint7_radial_4821_9449)"/><path d="M9.5115 11.1834C9.85447 11.1834 10.1325 10.9054 10.1325 10.5624C10.1325 10.2194 9.85447 9.94141 9.5115 9.94141C9.16853 9.94141 8.8905 10.2194 8.8905 10.5624C8.8905 10.9054 9.16853 11.1834 9.5115 11.1834Z" fill="url(#paint8_radial_4821_9449)"/><path d="M6.02649 7.17737C6.35593 7.17737 6.62299 6.91031 6.62299 6.58087C6.62299 6.25144 6.35593 5.98438 6.02649 5.98438C5.69706 5.98438 5.42999 6.25144 5.42999 6.58087C5.42999 6.91031 5.69706 7.17737 6.02649 7.17737Z" fill="url(#paint9_radial_4821_9449)"/><path d="M6.02649 7.17737C6.35593 7.17737 6.62299 6.91031 6.62299 6.58087C6.62299 6.25144 6.35593 5.98438 6.02649 5.98438C5.69706 5.98438 5.42999 6.25144 5.42999 6.58087C5.42999 6.91031 5.69706 7.17737 6.02649 7.17737Z" fill="url(#paint10_radial_4821_9449)"/><path d="M9.5215 1.99991C9.79654 1.99991 10.0195 1.77694 10.0195 1.50191C10.0195 1.22687 9.79654 1.00391 9.5215 1.00391C9.24646 1.00391 9.0235 1.22687 9.0235 1.50191C9.0235 1.77694 9.24646 1.99991 9.5215 1.99991Z" fill="url(#paint11_radial_4821_9449)"/><path d="M9.5215 1.99991C9.79654 1.99991 10.0195 1.77694 10.0195 1.50191C10.0195 1.22687 9.79654 1.00391 9.5215 1.00391C9.24646 1.00391 9.0235 1.22687 9.0235 1.50191C9.0235 1.77694 9.24646 1.99991 9.5215 1.99991Z" fill="url(#paint12_radial_4821_9449)"/><g filter="url(#filter3_f_4821_9449)"><path d="M9.664 6.12109L2.086 13.7311" stroke="url(#paint13_linear_4821_9449)" stroke-width="0.25"/></g><path d="M9.10001 5.89417L9.96101 5.02867C10.0933 4.89573 10.273 4.82078 10.4605 4.82031C10.648 4.81985 10.8281 4.89389 10.961 5.02617C11.0939 5.15845 11.1689 5.33812 11.1694 5.52565C11.1698 5.71319 11.0958 5.89323 10.9635 6.02617L10.1065 6.88717L9.10001 5.89417Z" fill="#CFC9D8"/><path d="M9.10001 5.89417L9.96101 5.02867C10.0933 4.89573 10.273 4.82078 10.4605 4.82031C10.648 4.81985 10.8281 4.89389 10.961 5.02617C11.0939 5.15845 11.1689 5.33812 11.1694 5.52565C11.1698 5.71319 11.0958 5.89323 10.9635 6.02617L10.1065 6.88717L9.10001 5.89417Z" fill="url(#paint14_linear_4821_9449)"/><path d="M9.10001 5.89417L9.96101 5.02867C10.0933 4.89573 10.273 4.82078 10.4605 4.82031C10.648 4.81985 10.8281 4.89389 10.961 5.02617C11.0939 5.15845 11.1689 5.33812 11.1694 5.52565C11.1698 5.71319 11.0958 5.89323 10.9635 6.02617L10.1065 6.88717L9.10001 5.89417Z" fill="url(#paint15_linear_4821_9449)"/><path d="M9.10001 5.89417L9.96101 5.02867C10.0933 4.89573 10.273 4.82078 10.4605 4.82031C10.648 4.81985 10.8281 4.89389 10.961 5.02617C11.0939 5.15845 11.1689 5.33812 11.1694 5.52565C11.1698 5.71319 11.0958 5.89323 10.9635 6.02617L10.1065 6.88717L9.10001 5.89417Z" fill="url(#paint16_radial_4821_9449)"/><g filter="url(#filter4_i_4821_9449)"><path d="M1.31899 14.7142C1.59549 14.9907 2.04399 14.9902 2.32049 14.7132L3.16549 13.8642L2.16199 12.8672L1.31799 13.7157C1.18595 13.8484 1.1119 14.028 1.11209 14.2151C1.11228 14.4023 1.18668 14.5818 1.31899 14.7142Z" fill="#CFC6DD"/><path d="M1.31899 14.7142C1.59549 14.9907 2.04399 14.9902 2.32049 14.7132L3.16549 13.8642L2.16199 12.8672L1.31799 13.7157C1.18595 13.8484 1.1119 14.028 1.11209 14.2151C1.11228 14.4023 1.18668 14.5818 1.31899 14.7142Z" fill="url(#paint17_linear_4821_9449)"/></g><path d="M1.31899 14.7142C1.59549 14.9907 2.04399 14.9902 2.32049 14.7132L3.16549 13.8642L2.16199 12.8672L1.31799 13.7157C1.18595 13.8484 1.1119 14.028 1.11209 14.2151C1.11228 14.4023 1.18668 14.5818 1.31899 14.7142Z" fill="url(#paint18_linear_4821_9449)"/><path d="M1.31899 14.7142C1.59549 14.9907 2.04399 14.9902 2.32049 14.7132L3.16549 13.8642L2.16199 12.8672L1.31799 13.7157C1.18595 13.8484 1.1119 14.028 1.11209 14.2151C1.11228 14.4023 1.18668 14.5818 1.31899 14.7142Z" fill="url(#paint19_radial_4821_9449)"/><defs><filter id="filter0_ii_4821_9449" x="11.4914" y="0.925" width="3.55182" height="4.13828" filterUnits="userSpaceOnUse" color-interpolation-filters="sRGB"><feFlood flood-opacity="0" result="BackgroundImageFix"/><feBlend mode="normal" in="SourceGraphic" in2="BackgroundImageFix" result="shape"/><feColorMatrix in="SourceAlpha" type="matrix" values="0 0 0 0 0 0 0 0 0 0 0 0 0 0 0 0 0 0 127 0" result="hardAlpha"/><feOffset dx="0.075" dy="-0.075"/><feGaussianBlur stdDeviation="0.1875"/><feComposite in2="hardAlpha" operator="arithmetic" k2="-1" k3="1"/><feColorMatrix type="matrix" values="0 0 0 0 0.94902 0 0 0 0 0.513726 0 0 0 0 0.392157 0 0 0 1 0"/><feBlend mode="normal" in2="shape" result="effect1_innerShadow_4821_9449"/><feColorMatrix in="SourceAlpha" type="matrix" values="0 0 0 0 0 0 0 0 0 0 0 0 0 0 0 0 0 0 127 0" result="hardAlpha"/><feOffset dx="-0.075" dy="0.075"/><feGaussianBlur stdDeviation="0.15"/><feComposite in2="hardAlpha" operator="arithmetic" k2="-1" k3="1"/><feColorMatrix type="matrix" values="0 0 0 0 1 0 0 0 0 0.823529 0 0 0 0 0.407843 0 0 0 1 0"/><feBlend mode="normal" in2="effect1_innerShadow_4821_9449" result="effect2_innerShadow_4821_9449"/></filter><filter id="filter1_ii_4821_9449" x="6.16353" y="1.42891" width="2.69291" height="3.13047" filterUnits="userSpaceOnUse" color-interpolation-filters="sRGB"><feFlood flood-opacity="0" result="BackgroundImageFix"/><feBlend mode="normal" in="SourceGraphic" in2="BackgroundImageFix" result="shape"/><feColorMatrix in="SourceAlpha" type="matrix" values="0 0 0 0 0 0 0 0 0 0 0 0 0 0 0 0 0 0 127 0" result="hardAlpha"/><feOffset dx="0.075" dy="-0.075"/><feGaussianBlur stdDeviation="0.1875"/><feComposite in2="hardAlpha" operator="arithmetic" k2="-1" k3="1"/><feColorMatrix type="matrix" values="0 0 0 0 0.94902 0 0 0 0 0.513726 0 0 0 0 0.392157 0 0 0 1 0"/><feBlend mode="normal" in2="shape" result="effect1_innerShadow_4821_9449"/><feColorMatrix in="SourceAlpha" type="matrix" values="0 0 0 0 0 0 0 0 0 0 0 0 0 0 0 0 0 0 127 0" result="hardAlpha"/><feOffset dx="-0.075" dy="0.075"/><feGaussianBlur stdDeviation="0.15"/><feComposite in2="hardAlpha" operator="arithmetic" k2="-1" k3="1"/><feColorMatrix type="matrix" values="0 0 0 0 1 0 0 0 0 0.823529 0 0 0 0 0.407843 0 0 0 1 0"/><feBlend mode="normal" in2="effect1_innerShadow_4821_9449" result="effect2_innerShadow_4821_9449"/></filter><filter id="filter2_ii_4821_9449" x="10.9451" y="6.91328" width="2.69291" height="3.13047" filterUnits="userSpaceOnUse" color-interpolation-filters="sRGB"><feFlood flood-opacity="0" result="BackgroundImageFix"/><feBlend mode="normal" in="SourceGraphic" in2="BackgroundImageFix" result="shape"/><feColorMatrix in="SourceAlpha" type="matrix" values="0 0 0 0 0 0 0 0 0 0 0 0 0 0 0 0 0 0 127 0" result="hardAlpha"/><feOffset dx="0.075" dy="-0.075"/><feGaussianBlur stdDeviation="0.1875"/><feComposite in2="hardAlpha" operator="arithmetic" k2="-1" k3="1"/><feColorMatrix type="matrix" values="0 0 0 0 0.94902 0 0 0 0 0.513726 0 0 0 0 0.392157 0 0 0 1 0"/><feBlend mode="normal" in2="shape" result="effect1_innerShadow_4821_9449"/><feColorMatrix in="SourceAlpha" type="matrix" values="0 0 0 0 0 0 0 0 0 0 0 0 0 0 0 0 0 0 127 0" result="hardAlpha"/><feOffset dx="-0.075" dy="0.075"/><feGaussianBlur stdDeviation="0.15"/><feComposite in2="hardAlpha" operator="arithmetic" k2="-1" k3="1"/><feColorMatrix type="matrix" values="0 0 0 0 1 0 0 0 0 0.823529 0 0 0 0 0.407843 0 0 0 1 0"/><feBlend mode="normal" in2="effect1_innerShadow_4821_9449" result="effect2_innerShadow_4821_9449"/></filter><filter id="filter3_f_4821_9449" x="1.74744" y="5.78125" width="8.25513" height="8.28906" filterUnits="userSpaceOnUse" color-interpolation-filters="sRGB"><feFlood flood-opacity="0" result="BackgroundImageFix"/><feBlend mode="normal" in="SourceGraphic" in2="BackgroundImageFix" result="shape"/><feGaussianBlur stdDeviation="0.125" result="effect1_foregroundBlur_4821_9449"/></filter><filter id="filter4_i_4821_9449" x="1.06209" y="12.6172" width="2.10341" height="2.30469" filterUnits="userSpaceOnUse" color-interpolation-filters="sRGB"><feFlood flood-opacity="0" result="BackgroundImageFix"/><feBlend mode="normal" in="SourceGraphic" in2="BackgroundImageFix" result="shape"/><feColorMatrix in="SourceAlpha" type="matrix" values="0 0 0 0 0 0 0 0 0 0 0 0 0 0 0 0 0 0 127 0" result="hardAlpha"/><feOffset dx="-0.05" dy="-0.25"/><feGaussianBlur stdDeviation="0.25"/><feComposite in2="hardAlpha" operator="arithmetic" k2="-1" k3="1"/><feColorMatrix type="matrix" values="0 0 0 0 0.698039 0 0 0 0 0.619608 0 0 0 0 0.792157 0 0 0 1 0"/><feBlend mode="normal" in2="shape" result="effect1_innerShadow_4821_9449"/></filter><linearGradient id="paint0_linear_4821_9449" x1="9.61699" y1="6.51017" x2="2.58599" y2="13.6977" gradientUnits="userSpaceOnUse"><stop stop-color="#60105F"/><stop offset="1" stop-color="#54155E"/></linearGradient><linearGradient id="paint1_linear_4821_9449" x1="2.74999" y1="12.0337" x2="3.48449" y2="12.7602" gradientUnits="userSpaceOnUse"><stop stop-color="#523253"/><stop offset="1" stop-color="#523253" stop-opacity="0"/></linearGradient><linearGradient id="paint2_linear_4821_9449" x1="14.4905" y1="2.05598" x2="12.5085" y2="4.03948" gradientUnits="userSpaceOnUse"><stop stop-color="#FFD459"/><stop offset="1" stop-color="#FFA271"/></linearGradient><linearGradient id="paint3_linear_4821_9449" x1="8.42398" y1="2.29288" x2="6.94248" y2="3.77588" gradientUnits="userSpaceOnUse"><stop stop-color="#FFD465"/><stop offset="1" stop-color="#FFAF36"/></linearGradient><linearGradient id="paint4_linear_4821_9449" x1="13.205" y1="7.77796" x2="11.7235" y2="9.26096" gradientUnits="userSpaceOnUse"><stop stop-color="#FFD465"/><stop offset="1" stop-color="#FFAF36"/></linearGradient><radialGradient id="paint5_radial_4821_9449" cx="0" cy="0" r="1" gradientUnits="userSpaceOnUse" gradientTransform="translate(14.654 6.23247) rotate(127.823) scale(0.93737 0.876716)"><stop stop-color="#FFD463"/><stop offset="1" stop-color="#E68F2B"/></radialGradient><radialGradient id="paint6_radial_4821_9449" cx="0" cy="0" r="1" gradientUnits="userSpaceOnUse" gradientTransform="translate(14.379 6.06647) rotate(90) scale(1.03101 0.89876)"><stop offset="0.797" stop-color="#E37A42" stop-opacity="0"/><stop offset="1" stop-color="#E37A42"/></radialGradient><radialGradient id="paint7_radial_4821_9449" cx="0" cy="0" r="1" gradientUnits="userSpaceOnUse" gradientTransform="translate(9.787 10.3179) rotate(127.823) scale(0.937369 0.876716)"><stop stop-color="#FFD463"/><stop offset="1" stop-color="#E68F2B"/></radialGradient><radialGradient id="paint8_radial_4821_9449" cx="0" cy="0" r="1" gradientUnits="userSpaceOnUse" gradientTransform="translate(9.5115 10.1524) rotate(90) scale(1.03101 0.89876)"><stop offset="0.797" stop-color="#E37A42" stop-opacity="0"/><stop offset="1" stop-color="#E37A42"/></radialGradient><radialGradient id="paint9_radial_4821_9449" cx="0" cy="0" r="1" gradientUnits="userSpaceOnUse" gradientTransform="translate(6.29067 6.34667) rotate(127.823) scale(0.900525 0.842255)"><stop stop-color="#FFD463"/><stop offset="1" stop-color="#E68F2B"/></radialGradient><radialGradient id="paint10_radial_4821_9449" cx="0" cy="0" r="1" gradientUnits="userSpaceOnUse" gradientTransform="translate(6.02649 6.18687) rotate(90) scale(0.99048 0.86343)"><stop offset="0.797" stop-color="#E37A42" stop-opacity="0"/><stop offset="1" stop-color="#E37A42"/></radialGradient><radialGradient id="paint11_radial_4821_9449" cx="0" cy="0" r="1" gradientUnits="userSpaceOnUse" gradientTransform="translate(9.742 1.30591) rotate(127.823) scale(0.751668 0.70303)"><stop stop-color="#FFD463"/><stop offset="1" stop-color="#E68F2B"/></radialGradient><radialGradient id="paint12_radial_4821_9449" cx="0" cy="0" r="1" gradientUnits="userSpaceOnUse" gradientTransform="translate(9.5215 1.17341) rotate(90) scale(0.82675 0.720705)"><stop offset="0.869" stop-color="#E37A42" stop-opacity="0"/><stop offset="1" stop-color="#E37A42"/></radialGradient><linearGradient id="paint13_linear_4821_9449" x1="9.2735" y1="6.66809" x2="2.086" y2="13.7306" gradientUnits="userSpaceOnUse"><stop stop-color="#692167"/><stop offset="1" stop-color="#5B2460"/></linearGradient><linearGradient id="paint14_linear_4821_9449" x1="9.42351" y1="5.51017" x2="9.92451" y2="5.98417" gradientUnits="userSpaceOnUse"><stop stop-color="#C1BFC3"/><stop offset="1" stop-color="#C1BFC3" stop-opacity="0"/></linearGradient><linearGradient id="paint15_linear_4821_9449" x1="10.711" y1="6.44017" x2="10.3985" y2="6.11217" gradientUnits="userSpaceOnUse"><stop stop-color="#B0A1BF"/><stop offset="1" stop-color="#B0A1BF" stop-opacity="0"/></linearGradient><radialGradient id="paint16_radial_4821_9449" cx="0" cy="0" r="1" gradientUnits="userSpaceOnUse" gradientTransform="translate(10.8985 5.05717) rotate(133.939) scale(0.596727 0.72093)"><stop offset="0.21" stop-color="#ECE8F2"/><stop offset="1" stop-color="#ECE8F2" stop-opacity="0"/></radialGradient><linearGradient id="paint17_linear_4821_9449" x1="1.64149" y1="13.2942" x2="2.13849" y2="13.7907" gradientUnits="userSpaceOnUse"><stop stop-color="#A8A6AD"/><stop offset="1" stop-color="#A8A6AD" stop-opacity="0"/></linearGradient><linearGradient id="paint18_linear_4821_9449" x1="1.30449" y1="14.8717" x2="1.69549" y2="14.3872" gradientUnits="userSpaceOnUse"><stop stop-color="#968FA1"/><stop offset="1" stop-color="#968FA1" stop-opacity="0"/></linearGradient><radialGradient id="paint19_radial_4821_9449" cx="0" cy="0" r="1" gradientUnits="userSpaceOnUse" gradientTransform="translate(2.13849 12.9497) rotate(98.4726) scale(2.4249 2.47549)"><stop offset="0.661" stop-color="#8F6EAF" stop-opacity="0"/><stop offset="0.918" stop-color="#8F6EAF"/></radialGradient></defs></svg>